<?xml version="1.0" standalone="no"?>
<!DOCTYPE svg PUBLIC "-//W3C//DTD SVG 20010904//EN"
 "http://www.w3.org/TR/2001/REC-SVG-20010904/DTD/svg10.dtd">
<svg version="1.0" xmlns="http://www.w3.org/2000/svg"
 width="260.000000pt" height="260.000000pt" viewBox="0 0 260.000000 260.000000"
 preserveAspectRatio="xMidYMid meet">
<metadata>
Created by potrace 1.14, written by Peter Selinger 2001-2017
</metadata>
<g transform="translate(0.000000,260.000000) scale(0.100000,-0.100000)"
fill="#000000" stroke="none">
<path d="M1240 2359 c-30 -16 -64 -40 -76 -52 -11 -12 -44 -29 -73 -37 -64
-17 -121 -69 -145 -131 -14 -37 -30 -53 -96 -97 -139 -94 -250 -220 -326 -370
-37 -73 -75 -171 -79 -207 -1 -5 -5 -26 -9 -45 -13 -62 -14 -74 -15 -112 -1
-46 2 -46 -151 25 -126 58 -205 66 -235 23 -14 -19 -14 -22 2 -34 10 -7 39
-23 66 -34 26 -11 47 -23 47 -27 0 -3 -18 -19 -41 -34 -48 -34 -73 -71 -65
-93 5 -13 16 -14 66 -9 55 6 60 5 60 -13 0 -11 -6 -22 -12 -25 -7 -3 -21 -19
-31 -36 -17 -29 -17 -31 2 -43 19 -11 19 -12 -5 -37 -13 -14 -24 -30 -23 -34
0 -5 -7 -14 -15 -20 -9 -7 -18 -26 -22 -43 -4 -24 0 -37 22 -63 23 -28 32 -32
62 -28 69 10 91 62 65 161 -14 54 -11 66 17 66 10 0 21 4 25 9 3 6 34 -4 70
-20 37 -18 72 -28 83 -25 23 8 43 -15 65 -73 12 -31 14 -49 6 -62 -5 -11 -7
-24 -4 -29 4 -6 1 -9 -7 -8 -8 2 -14 -10 -16 -34 -4 -52 30 -87 84 -85 37 2
42 -2 95 -68 188 -237 477 -378 774 -379 65 0 193 12 205 19 4 2 21 7 39 10
54 9 152 46 226 83 184 94 339 251 432 437 25 48 71 175 88 241 2 6 13 14 24
17 12 3 19 1 15 -4 -3 -5 -1 -9 4 -9 6 0 8 -8 5 -18 -11 -44 86 -78 134 -47
23 16 33 42 11 29 -10 -6 -10 -4 -2 7 20 27 -1 149 -26 149 -15 0 -18 39 -4
51 38 32 5 71 -79 92 -33 9 -60 17 -62 19 -2 2 -6 23 -10 48 -4 24 -8 48 -11
51 -2 4 8 14 22 24 64 42 82 78 51 104 -13 10 -25 10 -79 -4 -22 -6 -28 -4
-28 10 0 9 -16 50 -35 91 -101 219 -273 390 -497 493 -85 39 -229 81 -280 81
-28 0 -28 0 -13 29 26 51 -4 78 -57 50 -16 -9 -24 -7 -44 12 -13 12 -24 28
-24 34 0 6 -9 21 -20 33 -30 32 -83 28 -150 -9z m343 -489 c80 -20 172 -64
244 -115 48 -34 52 -45 23 -63 -17 -11 -27 -9 -66 13 -53 29 -115 45 -199 50
-33 2 -63 4 -67 4 -5 1 -8 6 -8 12 0 6 -11 33 -25 61 -14 27 -25 52 -25 54 0
9 51 3 123 -16z m807 -423 c0 -2 -12 -14 -27 -28 l-28 -24 24 28 c23 25 31 32
31 24z m-60 -65 c0 -5 -7 -17 -15 -28 -14 -18 -14 -17 -4 9 12 27 19 34 19 19z
m-26 -108 c3 -8 2 -12 -4 -9 -6 3 -10 10 -10 16 0 14 7 11 14 -7z m240 -54
c-6 -6 -10 -3 -10 10 0 13 4 16 10 10 7 -7 7 -13 0 -20z m-70 -72 c1 -15 -2
-24 -5 -22 -4 2 -11 -5 -14 -17 -6 -19 -8 -20 -26 -3 -18 16 -26 64 -13 76 3
3 17 3 31 -1 19 -5 27 -14 27 -33z m-2397 7 c0 -8 -4 -12 -9 -9 -5 3 -6 10 -3
15 9 13 12 11 12 -6z m813 -44 c16 -31 13 -36 -46 -75 -59 -39 -67 -39 -78 5
-7 30 5 44 63 70 47 22 48 22 61 0z m-685 0 c3 -5 2 -12 -3 -15 -5 -3 -9 1 -9
9 0 17 3 19 12 6z m2213 -42 c-3 -8 -7 -3 -11 10 -4 17 -3 21 5 13 5 -5 8 -16
6 -23z m-2257 -22 c-6 -8 -7 -18 -3 -22 4 -5 1 -5 -6 -1 -10 6 -10 11 -1 22 6
8 14 14 16 14 3 0 0 -6 -6 -13z m1890 -50 c-10 -9 -11 -8 -5 6 3 10 9 15 12
12 3 -3 0 -11 -7 -18z m449 -33 c0 -2 -9 0 -20 6 -11 6 -20 13 -20 16 0 2 9 0
20 -6 11 -6 20 -13 20 -16z m-500 -88 c0 -2 -8 -10 -17 -17 -16 -13 -17 -12
-4 4 13 16 21 21 21 13z m-837 -38 c12 -7 23 -14 25 -15 2 0 -3 -15 -12 -31
-19 -36 -115 -122 -136 -122 -8 0 -30 13 -49 29 l-34 28 89 61 c49 33 90 61
92 61 1 1 12 -5 25 -11z m797 -22 c0 -2 -8 -10 -17 -17 -16 -13 -17 -12 -4 4
13 16 21 21 21 13z"/>
</g>
</svg>
